<svg xmlns="http://www.w3.org/2000/svg" viewBox="0 0 24 24" fill="none">
  <rect x="2" y="2" width="20" height="20" rx="3.2" fill="#8B5CF6" />
  <rect x="7.2" y="10" width="2" height="1.6" rx=".2" fill="#FFFFFF" />
  <rect x="9.5" y="10" width="2" height="1.6" rx=".2" fill="#FFFFFF" />
  <rect x="11.8" y="10" width="2" height="1.6" rx=".2" fill="#FFFFFF" />
  <rect x="9.5" y="8.1" width="2" height="1.6" rx=".2" fill="#FFFFFF" />
  <rect x="11.8" y="8.1" width="2" height="1.6" rx=".2" fill="#FFFFFF" />
  <path d="M7.1 13h6.7c1.96 0 3.34-.7 4.1-2.1.34-.62.46-1.28.35-1.95-.78.2-1.39.62-1.8 1.25-.28-.66-.76-1.08-1.45-1.25-.28 1.68-1.16 2.95-2.95 4.05H7.1c0 1.62.96 2.65 2.95 2.65h2.55c1.84 0 3.15-.52 4.05-1.6H12.8c-1.1 0-1.84-.4-2.2-1.05H7.1Z" fill="#FFFFFF" />
  <circle cx="15.55" cy="12.25" r=".28" fill="#8B5CF6" />
</svg>
