<svg xmlns="http://www.w3.org/2000/svg" viewBox="0 0 24 24" fill="none">
  <rect x="2" y="2" width="20" height="20" rx="3.2" fill="#8B5CF6" />
  <path d="M10.25 7.1c0 .95.88 1.15.88 2 0 .73-.56.96-.56 1.62M13 6.85c0 1.02.98 1.24.98 2.16 0 .76-.6 1-.6 1.7" stroke="#FFFFFF" stroke-width="1.15" stroke-linecap="round" />
  <path d="M7 11.7h7.8v2.95A2.35 2.35 0 0 1 12.45 17H9.35A2.35 2.35 0 0 1 7 14.65V11.7Z" fill="#FFFFFF" />
  <path d="M7.15 12.85h7.5" stroke="#8B5CF6" stroke-width="1.05" stroke-linecap="round" />
  <path d="M14.85 12.45h1.05a1.4 1.4 0 0 1 0 2.8h-1.05" stroke="#FFFFFF" stroke-width="1.2" stroke-linecap="round" />
</svg>
