<svg xmlns="http://www.w3.org/2000/svg" viewBox="0 0 24 24" fill="none">
  <rect x="2" y="2" width="20" height="20" rx="3.2" fill="#8B5CF6" />
  <path d="M8.9 8.25h2.1v6.05c0 1.55-.8 2.45-2.2 2.45-.78 0-1.42-.2-1.95-.62l.85-1.5c.29.22.6.33.95.33.48 0 .74-.28.74-.82V8.25Z" fill="#FFFFFF" />
  <path d="M14.5 8.15c1.38 0 2.38.52 3.1 1.5l-1.35 1.05c-.44-.58-.95-.88-1.62-.88-.63 0-1 .25-1 .67 0 .46.4.68 1.45 1 1.52.47 2.52 1.03 2.52 2.7 0 1.72-1.25 2.62-3.05 2.62-1.58 0-2.75-.62-3.45-1.82l1.47-.95c.4.67 1.02 1.08 1.92 1.08.8 0 1.3-.28 1.3-.78 0-.55-.43-.74-1.55-1.08-1.35-.4-2.4-.97-2.4-2.62 0-1.57 1.2-2.5 2.66-2.5Z" fill="#FFFFFF" />
</svg>
