<svg xmlns="http://www.w3.org/2000/svg" viewBox="0 0 24 24" fill="none">
  <rect x="2" y="2" width="20" height="20" rx="3.2" fill="#8B5CF6" />
  <path
    d="M9.5 8.65c-.8 0-1.2.38-1.2 1.14v.85c0 .64-.32 1.01-.95 1.1.63.09.95.46.95 1.1v.86c0 .75.4 1.13 1.2 1.13"
    stroke="#FFFFFF"
    stroke-width="1.4"
    stroke-linecap="round"
    stroke-linejoin="round"
  />
  <path
    d="M14.5 8.65c.8 0 1.2.38 1.2 1.14v.85c0 .64.32 1.01.95 1.1-.63.09-.95.46-.95 1.1v.86c0 .75-.4 1.13-1.2 1.13"
    stroke="#FFFFFF"
    stroke-width="1.4"
    stroke-linecap="round"
    stroke-linejoin="round"
  />
  <circle cx="12" cy="10" r=".75" fill="#FFFFFF" />
  <circle cx="12" cy="12" r=".75" fill="#FFFFFF" />
  <circle cx="12" cy="14" r=".75" fill="#FFFFFF" />
</svg>
