<svg xmlns="http://www.w3.org/2000/svg" viewBox="0 0 24 24" fill="none">
  <rect x="2" y="2" width="20" height="20" rx="3.2" fill="#8B5CF6" />
  <path d="M9.05 7.95h3.4c1.28 0 1.95.6 1.95 1.73v.8c0 .62-.36.98-.98.98h-3.18c-.52 0-.82.3-.82.82v.72c0 1.28.68 1.95 1.95 1.95h1.08c.34 0 .62-.28.62-.62v-.48h-2.25v-.85h3.4v1.42c0 1.18-.68 1.82-1.85 1.82h-2.88c-1.27 0-1.95-.72-1.95-2v-.82c0-.63.28-1.08.85-1.32-.57-.22-.85-.65-.85-1.28v-.85c0-1.25.72-1.92 2.1-1.92Z" fill="#FFFFFF" />
  <path d="M14.95 16.05h-3.4c-1.28 0-1.95-.6-1.95-1.73v-.8c0-.62.36-.98.98-.98h3.18c.52 0 .82-.3.82-.82V11c0-1.28-.68-1.95-1.95-1.95h-1.08c-.34 0-.62.28-.62.62v.48h2.25V11h-3.4V9.58c0-1.18.68-1.82 1.85-1.82h2.88c1.27 0 1.95.72 1.95 2v.82c0 .63-.28 1.08-.85 1.32.57.22.85.65.85 1.28v.85c0 1.25-.72 1.92-2.1 1.92Z" fill="#FFFFFF" />
  <circle cx="10.75" cy="9.75" r=".42" fill="#8B5CF6" />
  <circle cx="13.25" cy="14.25" r=".42" fill="#8B5CF6" />
</svg>
