<svg xmlns="http://www.w3.org/2000/svg" viewBox="0 0 24 24" fill="none">
  <rect x="2" y="2" width="20" height="20" rx="3.2" fill="#8B5CF6" />
  <rect x="11.1" y="4.1" width="1.8" height="3.1" rx=".45" fill="#FFFFFF" />
  <rect x="11.1" y="16.8" width="1.8" height="3.1" rx=".45" fill="#FFFFFF" />
  <rect x="4.1" y="11.1" width="3.1" height="1.8" rx=".45" fill="#FFFFFF" />
  <rect x="16.8" y="11.1" width="3.1" height="1.8" rx=".45" fill="#FFFFFF" />
  <rect x="5.6" y="5.6" width="1.8" height="3.1" rx=".45" fill="#FFFFFF" transform="rotate(-45 6.5 7.15)" />
  <rect x="16.6" y="14.6" width="1.8" height="3.1" rx=".45" fill="#FFFFFF" transform="rotate(-45 17.5 16.15)" />
  <rect x="14.6" y="5.6" width="1.8" height="3.1" rx=".45" fill="#FFFFFF" transform="rotate(45 15.5 7.15)" />
  <rect x="5.6" y="14.6" width="1.8" height="3.1" rx=".45" fill="#FFFFFF" transform="rotate(45 6.5 16.15)" />
  <circle cx="12" cy="12" r="6.25" fill="#FFFFFF" />
  <circle cx="12" cy="12" r="4.7" fill="#8B5CF6" />
  <path d="M9.25 15.55V8.45h3.05c1.55 0 2.52.8 2.52 2.1 0 .96-.5 1.63-1.37 1.91l1.57 3.09h-1.87l-1.34-2.63h-.86v2.63h-1.7Zm1.7-4.08h1.15c.72 0 1.12-.3 1.12-.9 0-.58-.4-.89-1.12-.89h-1.15v1.79Z" fill="#FFFFFF" />
</svg>
