<svg xmlns="http://www.w3.org/2000/svg" viewBox="0 0 24 24" fill="none">
  <rect x="2" y="2" width="20" height="20" rx="3.2" fill="#8B5CF6" />
  <path d="M6.55 8.25h6.45v1.8h-2.2v6.7H8.75v-6.7h-2.2v-1.8Z" fill="#FFFFFF" />
  <path d="M16.1 8.15c1.34 0 2.32.5 3 1.42l-1.28 1c-.42-.55-.9-.82-1.52-.82-.58 0-.92.22-.92.62 0 .43.38.63 1.4.95 1.47.45 2.42 1 2.42 2.58 0 1.64-1.2 2.5-2.92 2.5-1.52 0-2.63-.58-3.3-1.72l1.4-.9c.38.63.97 1.02 1.83 1.02.77 0 1.25-.27 1.25-.75 0-.52-.42-.7-1.48-1.03-1.3-.4-2.3-.93-2.3-2.5 0-1.5 1.15-2.37 2.42-2.37Z" fill="#FFFFFF" />
</svg>
